<svg version="1.1" id="Layer_1" xmlns="http://www.w3.org/2000/svg" xmlns:xlink="http://www.w3.org/1999/xlink" x="0px" y="0px"
	 width="100%" viewBox="0 0 1464 1097" enable-background="new 0 0 1464 1097" xml:space="preserve">
<path fill="#000000" opacity="1.000000" stroke="none" 
	d="
M1.000002,528.000000 
	C1.000000,352.366455 1.000000,176.732910 1.000000,1.062272 
	C489.000000,1.062272 977.000000,1.062272 1465.000000,1.062272 
	C1465.000000,65.112396 1465.000000,129.100250 1464.703857,193.848053 
	C1463.502808,193.077240 1462.435425,191.618851 1461.716797,190.005142 
	C1443.884521,149.965042 1413.706787,123.953522 1371.753174,111.940544 
	C1333.541382,100.998924 1295.334961,104.023216 1258.067505,115.949989 
	C1179.808594,140.995377 1101.859985,167.010193 1023.785339,192.631424 
	C1014.837036,195.567947 1005.897949,198.532532 996.671936,201.577377 
	C1048.591797,359.500122 1100.349976,516.930908 1152.163818,674.531372 
	C1195.988403,660.119324 1239.063843,645.953552 1282.446777,631.686707 
	C1263.051636,572.664124 1243.781616,514.022217 1224.460693,455.225159 
	C1225.952637,454.652191 1226.851318,454.262604 1227.777832,453.957672 
	C1263.157837,442.313507 1298.439209,430.356720 1333.956421,419.147278 
	C1359.508423,411.082977 1383.908203,400.994873 1405.468994,384.750549 
	C1430.146362,366.158234 1449.215454,343.079620 1462.086182,314.925629 
	C1462.622803,313.751709 1464.009399,312.966400 1465.000000,312.000000 
	C1465.000000,573.961548 1465.000000,835.923096 1465.000000,1097.942383 
	C977.110046,1097.942383 489.220123,1097.942383 1.000000,1097.942383 
	C1.000000,914.304077 1.000000,730.607971 1.301330,546.121887 
	C2.383379,546.895081 3.374769,548.389038 3.914897,550.031311 
	C52.693569,698.349426 101.436821,846.679199 150.190414,995.005554 
	C151.056274,997.639954 152.018021,1000.242798 152.953537,1002.913269 
	C154.512299,1002.464844 155.623001,1002.184326 156.708603,1001.827454 
	C247.843750,971.868469 339.039276,942.091125 430.083160,911.857178 
	C473.350189,897.488953 508.416443,871.885498 532.545105,832.661499 
	C566.388855,777.644409 552.483887,719.658325 516.783447,681.683350 
	C492.254822,655.591980 460.503113,644.569397 425.772583,641.059082 
	C412.660919,639.733826 399.422729,639.660400 385.948944,639.002014 
	C387.022522,638.010376 388.042877,637.010620 389.122345,636.079346 
	C406.577271,621.021179 422.801666,604.872009 434.862579,584.977173 
	C457.648682,547.390686 456.156677,508.870911 431.070190,475.082733 
	C412.485352,450.051392 385.866577,438.799927 355.628204,434.972107 
	C321.105194,430.601929 287.373169,435.137421 254.609131,445.710785 
	C171.490295,472.534271 88.598923,500.062531 5.604413,527.271790 
	C4.146709,527.749695 2.538166,527.767517 1.000002,528.000000 
M658.416565,811.127502 
	C660.977295,818.791687 663.538086,826.455811 666.161682,834.308105 
	C709.898560,819.923340 753.062378,805.727112 796.441345,791.460083 
	C792.744568,780.191528 789.275330,769.599121 785.794861,759.010376 
	C769.563049,709.627808 753.314087,660.250793 737.153687,610.844910 
	C736.594299,609.134705 736.084900,606.507629 736.949829,605.377258 
	C742.876587,597.631042 749.176819,590.170593 755.397278,582.568604 
	C756.804993,583.533813 757.922974,584.249634 758.987610,585.037598 
	C825.882019,634.544312 892.783875,684.040833 959.621338,733.624146 
	C962.434692,735.711243 964.772522,736.250427 968.205566,735.101868 
	C998.159668,725.080383 1028.182983,715.265625 1058.187988,705.396240 
	C1071.749146,700.935608 1085.315552,696.490540 1099.509888,691.831543 
	C1007.059082,623.445984 915.194458,555.493958 823.071716,487.351074 
	C873.995789,405.028656 912.262207,317.920532 932.599182,222.789230 
	C931.138062,223.068024 930.340149,223.131393 929.601135,223.374130 
	C902.118713,232.400742 874.661316,241.504593 847.135864,250.397858 
	C844.152649,251.361710 843.461853,253.150391 842.925110,255.731979 
	C836.308167,287.556702 827.514099,318.773254 816.339905,349.298767 
	C791.482727,417.203278 757.584595,480.437195 717.356750,540.384460 
	C716.787720,541.232483 715.969421,541.913330 714.831238,543.143799 
	C690.082153,467.887115 665.553345,393.299988 640.947449,318.478699 
	C597.099976,332.898254 554.010803,347.068481 510.604462,361.342957 
	C559.913635,511.367828 609.049194,660.864380 658.416565,811.127502 
z"/>
<path fill="#FEFEFE" opacity="1.000000" stroke="none" 
	d="
M1.000002,528.467957 
	C2.538166,527.767517 4.146709,527.749695 5.604413,527.271790 
	C88.598923,500.062531 171.490295,472.534271 254.609131,445.710785 
	C287.373169,435.137421 321.105194,430.601929 355.628204,434.972107 
	C385.866577,438.799927 412.485352,450.051392 431.070190,475.082733 
	C456.156677,508.870911 457.648682,547.390686 434.862579,584.977173 
	C422.801666,604.872009 406.577271,621.021179 389.122345,636.079346 
	C388.042877,637.010620 387.022522,638.010376 385.948944,639.002014 
	C399.422729,639.660400 412.660919,639.733826 425.772583,641.059082 
	C460.503113,644.569397 492.254822,655.591980 516.783447,681.683350 
	C552.483887,719.658325 566.388855,777.644409 532.545105,832.661499 
	C508.416443,871.885498 473.350189,897.488953 430.083160,911.857178 
	C339.039276,942.091125 247.843750,971.868469 156.708603,1001.827454 
	C155.623001,1002.184326 154.512299,1002.464844 152.953537,1002.913269 
	C152.018021,1000.242798 151.056274,997.639954 150.190414,995.005554 
	C101.436821,846.679199 52.693569,698.349426 3.914897,550.031311 
	C3.374769,548.389038 2.383379,546.895081 1.301330,545.665955 
	C1.000000,540.311951 1.000000,534.623962 1.000002,528.467957 
M401.635132,743.890747 
	C399.953461,741.023682 398.377289,738.088379 396.574036,735.299988 
	C374.764435,701.575012 342.250366,688.919678 303.839844,700.498718 
	C272.429077,709.967651 241.413513,720.747681 210.227356,730.960571 
	C209.624649,731.158020 209.078964,731.529602 208.132248,732.009888 
	C228.114487,792.778198 248.064087,853.447266 268.067078,914.278625 
	C275.147278,911.959229 281.483002,909.931458 287.787140,907.809998 
	C311.287842,899.901917 335.252319,893.122009 358.156097,883.751587 
	C388.995087,871.134705 409.406647,848.412231 415.567688,814.780090 
	C420.157410,789.725403 413.213593,766.658508 401.635132,743.890747 
M143.661316,535.784546 
	C159.991364,585.508545 176.321396,635.232605 192.805359,685.425293 
	C198.755295,683.492188 204.293839,681.839355 209.730301,679.900452 
	C230.077759,672.643311 250.769104,666.177368 270.608185,657.718384 
	C289.016205,649.869446 303.846924,636.879578 313.631317,618.960999 
	C326.474579,595.440613 323.780762,571.815125 313.597260,548.282410 
	C308.122681,535.631348 301.077881,524.014038 289.939850,515.466675 
	C273.955048,503.199982 255.482788,500.555878 236.334244,503.594818 
	C204.597824,508.631470 175.251404,522.032227 144.698029,531.246521 
	C143.930206,531.478149 143.772491,533.732666 143.661316,535.784546 
z"/>
<path fill="#FEFEFE" opacity="1.000000" stroke="none" 
	d="
M1465.000000,311.531372 
	C1464.009399,312.966400 1462.622803,313.751709 1462.086182,314.925629 
	C1449.215454,343.079620 1430.146362,366.158234 1405.468994,384.750549 
	C1383.908203,400.994873 1359.508423,411.082977 1333.956421,419.147278 
	C1298.439209,430.356720 1263.157837,442.313507 1227.777832,453.957672 
	C1226.851318,454.262604 1225.952637,454.652191 1224.460693,455.225159 
	C1243.781616,514.022217 1263.051636,572.664124 1282.446777,631.686707 
	C1239.063843,645.953552 1195.988403,660.119324 1152.163818,674.531372 
	C1100.349976,516.930908 1048.591797,359.500122 996.671936,201.577377 
	C1005.897949,198.532532 1014.837036,195.567947 1023.785339,192.631424 
	C1101.859985,167.010193 1179.808594,140.995377 1258.067505,115.949989 
	C1295.334961,104.023216 1333.541382,100.998924 1371.753174,111.940544 
	C1413.706787,123.953522 1443.884521,149.965042 1461.716797,190.005142 
	C1462.435425,191.618851 1463.502808,193.077240 1464.703857,194.303986 
	C1465.000000,233.020889 1465.000000,272.041779 1465.000000,311.531372 
M1168.473755,285.003448 
	C1182.167603,326.637512 1195.861450,368.271606 1209.507812,409.761078 
	C1210.202515,409.845428 1210.563232,409.999847 1210.842285,409.907501 
	C1235.760132,401.657288 1260.934204,394.095032 1285.523438,384.958618 
	C1324.907349,370.325165 1345.304688,340.931732 1344.900513,300.593903 
	C1344.632568,273.851685 1337.737183,248.565979 1325.389160,224.924713 
	C1304.309326,184.565277 1269.216919,168.317429 1225.009521,178.960831 
	C1208.729614,182.880447 1192.908936,188.727478 1176.915894,193.812576 
	C1165.386230,197.478592 1153.918091,201.338516 1142.273926,205.160675 
	C1151.017334,231.861771 1159.597534,258.064606 1168.473755,285.003448 
z"/>
<path fill="#FEFEFE" opacity="1.000000" stroke="none" 
	d="
M658.300659,810.744202 
	C609.049194,660.864380 559.913635,511.367828 510.604462,361.342957 
	C554.010803,347.068481 597.099976,332.898254 640.947449,318.478699 
	C665.553345,393.299988 690.082153,467.887115 714.831238,543.143799 
	C715.969421,541.913330 716.787720,541.232483 717.356750,540.384460 
	C757.584595,480.437195 791.482727,417.203278 816.339905,349.298767 
	C827.514099,318.773254 836.308167,287.556702 842.925110,255.731979 
	C843.461853,253.150391 844.152649,251.361710 847.135864,250.397858 
	C874.661316,241.504593 902.118713,232.400742 929.601135,223.374130 
	C930.340149,223.131393 931.138062,223.068024 932.599182,222.789230 
	C912.262207,317.920532 873.995789,405.028656 823.071716,487.351074 
	C915.194458,555.493958 1007.059082,623.445984 1099.509888,691.831543 
	C1085.315552,696.490540 1071.749146,700.935608 1058.187988,705.396240 
	C1028.182983,715.265625 998.159668,725.080383 968.205566,735.101868 
	C964.772522,736.250427 962.434692,735.711243 959.621338,733.624146 
	C892.783875,684.040833 825.882019,634.544312 758.987610,585.037598 
	C757.922974,584.249634 756.804993,583.533813 755.397278,582.568604 
	C749.176819,590.170593 742.876587,597.631042 736.949829,605.377258 
	C736.084900,606.507629 736.594299,609.134705 737.153687,610.844910 
	C753.314087,660.250793 769.563049,709.627808 785.794861,759.010376 
	C789.275330,769.599121 792.744568,780.191528 796.441345,791.460083 
	C753.062378,805.727112 709.898560,819.923340 666.161682,834.308105 
	C663.538086,826.455811 660.977295,818.791687 658.300659,810.744202 
z"/>
<path fill="#010101" opacity="1.000000" stroke="none" 
	d="
M401.827148,744.208313 
	C413.213593,766.658508 420.157410,789.725403 415.567688,814.780090 
	C409.406647,848.412231 388.995087,871.134705 358.156097,883.751587 
	C335.252319,893.122009 311.287842,899.901917 287.787140,907.809998 
	C281.483002,909.931458 275.147278,911.959229 268.067078,914.278625 
	C248.064087,853.447266 228.114487,792.778198 208.132248,732.009888 
	C209.078964,731.529602 209.624649,731.158020 210.227356,730.960571 
	C241.413513,720.747681 272.429077,709.967651 303.839844,700.498718 
	C342.250366,688.919678 374.764435,701.575012 396.574036,735.299988 
	C398.377289,738.088379 399.953461,741.023682 401.827148,744.208313 
z"/>
<path fill="#010101" opacity="1.000000" stroke="none" 
	d="
M143.495773,535.414185 
	C143.772491,533.732666 143.930206,531.478149 144.698029,531.246521 
	C175.251404,522.032227 204.597824,508.631470 236.334244,503.594818 
	C255.482788,500.555878 273.955048,503.199982 289.939850,515.466675 
	C301.077881,524.014038 308.122681,535.631348 313.597260,548.282410 
	C323.780762,571.815125 326.474579,595.440613 313.631317,618.960999 
	C303.846924,636.879578 289.016205,649.869446 270.608185,657.718384 
	C250.769104,666.177368 230.077759,672.643311 209.730301,679.900452 
	C204.293839,681.839355 198.755295,683.492188 192.805359,685.425293 
	C176.321396,635.232605 159.991364,585.508545 143.495773,535.414185 
z"/>
<path fill="#010101" opacity="1.000000" stroke="none" 
	d="
M1168.325684,284.635437 
	C1159.597534,258.064606 1151.017334,231.861771 1142.273926,205.160675 
	C1153.918091,201.338516 1165.386230,197.478592 1176.915894,193.812576 
	C1192.908936,188.727478 1208.729614,182.880447 1225.009521,178.960831 
	C1269.216919,168.317429 1304.309326,184.565277 1325.389160,224.924713 
	C1337.737183,248.565979 1344.632568,273.851685 1344.900513,300.593903 
	C1345.304688,340.931732 1324.907349,370.325165 1285.523438,384.958618 
	C1260.934204,394.095032 1235.760132,401.657288 1210.842285,409.907501 
	C1210.563232,409.999847 1210.202515,409.845428 1209.507812,409.761078 
	C1195.861450,368.271606 1182.167603,326.637512 1168.325684,284.635437 
z"/>
</svg>